<?xml version="1.0" encoding="utf-8"?>
<!-- Generator: Adobe Illustrator 19.1.0, SVG Export Plug-In . SVG Version: 6.00 Build 0)  -->
<svg version="1.1" id="Layer_1" xmlns="http://www.w3.org/2000/svg" xmlns:xlink="http://www.w3.org/1999/xlink" x="0px" y="0px"
	 viewBox="0 0 312 290" style="enable-background:new 0 0 312 290;" xml:space="preserve">
<metadata><?xpacket begin="﻿" id="W5M0MpCehiHzreSzNTczkc9d"?>
<x:xmpmeta xmlns:x="adobe:ns:meta/" x:xmptk="Adobe XMP Core 5.6-c067 79.157747, 2015/03/30-23:40:42        ">
   <rdf:RDF xmlns:rdf="http://www.w3.org/1999/02/22-rdf-syntax-ns#">
      <rdf:Description rdf:about=""/>
   </rdf:RDF>
</x:xmpmeta>





















<?xpacket end="w"?></metadata>
<style type="text/css">
	.st0{fill:#221F26;}
	.st1{fill:#FFFFFF;}
</style>
<g>
	<g>
		<path class="st0" d="M179.7,237.7l-42.2-1.1c0,0,0,0-0.1,0c-5.4,0-10.5-2.1-14.4-5.9c-3.9-3.8-6-9-6-14.4l-1.7-71.2l1.3-71.2
			c0-5.4,2.1-10.6,5.9-14.4c3.8-3.9,8.9-6,14.4-6l43.7-1.2l41.1,1c0,0,0,0,0.1,0c5.4,0,10.5,2.1,14.4,5.9c3.9,3.8,6,9,6,14.4
			l1.2,71.2l-0.8,71.2c0,5.4-2.1,10.6-5.9,14.4c-3.8,3.9-9,6-14.4,6L179.7,237.7z M137.5,235.5l42.2,1.1l42.6-1.4
			c5.2,0,10-2,13.7-5.7c3.6-3.7,5.6-8.5,5.6-13.7l0.8-71.2l-1.2-71.2c0-5.2-2-10-5.7-13.7c-3.6-3.6-8.5-5.6-13.6-5.6c0,0,0,0-0.1,0
			l-41.1-1L137,54.5c-5.2,0-10,2-13.6,5.7s-5.6,8.5-5.6,13.7l-1.3,71.2l1.7,71.1c0,5.2,2,10,5.7,13.7
			C127.5,233.5,132.3,235.5,137.5,235.5z M130.1,224.3l0-0.5l-0.5-158.5L229.9,65l0,0.5l0.5,158.5l-0.5,0L130.1,224.3z M130.7,66.4
			l0.4,156.9l98.1-0.3l-0.4-156.9L130.7,66.4z"/>
	</g>
	<g>
		<path class="st1" d="M147.1,102.7c0-6.8-5.5-12.3-12.3-12.3H81.8c-6.8,0-12.3,5.5-12.3,12.3v121.8c0,6.8,5.5,12.3,12.3,12.3h52.9
			c6.8,0,12.3-5.5,12.3-12.3V102.7z M101.8,93.7h13.9c0.5,0,0.9,0.5,0.9,1s-0.4,1-0.9,1h-13.9c-0.5,0-0.9-0.5-0.9-1
			S101.3,93.7,101.8,93.7 M114.2,232.1h-11c-1.6,0-2.9-1.1-2.9-2.7c0-1.6,1.3-2.7,2.9-2.7h11c1.6,0,2.9,1.1,2.9,2.7
			C117.1,231,115.8,232.1,114.2,232.1 M143,224.1H74.2v-121H143V224.1z M143,224.1H74.2v-121H143V224.1z"/>
		<path class="st0" d="M134.8,237.3H81.8c-7.1,0-12.8-5.8-12.8-12.8V102.7c0-7.1,5.8-12.8,12.8-12.8h52.9c7.1,0,12.8,5.8,12.8,12.8
			v121.8C147.6,231.5,141.8,237.3,134.8,237.3z M81.8,90.9c-6.5,0-11.8,5.3-11.8,11.8v121.8c0,6.5,5.3,11.8,11.8,11.8h52.9
			c6.5,0,11.8-5.3,11.8-11.8V102.7c0-6.5-5.3-11.8-11.8-11.8H81.8z M114.2,232.6h-11c-2,0-3.5-1.3-3.5-3.2s1.5-3.2,3.5-3.2h11
			c2,0,3.5,1.3,3.5,3.2S116.2,232.6,114.2,232.6z M103.1,227.3c-1.4,0-2.4,0.9-2.4,2.1s1,2.1,2.4,2.1h11c1.4,0,2.4-0.9,2.4-2.1
			s-1-2.1-2.4-2.1H103.1z M143.6,224.6H73.7v-122h69.9V224.6z M74.7,223.5h67.8V103.6H74.7V223.5z M115.7,96.3h-13.9
			c-0.8,0-1.4-0.8-1.4-1.5c0-0.8,0.7-1.5,1.4-1.5h13.9c0.8,0,1.4,0.7,1.4,1.5C117.1,95.4,116.5,96.3,115.7,96.3z M101.8,94.3
			c-0.2,0-0.4,0.3-0.4,0.5s0.2,0.5,0.4,0.5h13.9c0.2,0,0.4-0.3,0.4-0.5s-0.2-0.5-0.4-0.5H101.8z"/>
	</g>
</g>
</svg>
