<?xml version="1.0" encoding="utf-8"?>
<!-- Generator: Adobe Illustrator 19.1.0, SVG Export Plug-In . SVG Version: 6.00 Build 0)  -->
<svg version="1.1" id="Layer_1" xmlns="http://www.w3.org/2000/svg" xmlns:xlink="http://www.w3.org/1999/xlink" x="0px" y="0px"
	 viewBox="0 0 195 195" style="enable-background:new 0 0 195 195;" xml:space="preserve">
<metadata><?xpacket begin="﻿" id="W5M0MpCehiHzreSzNTczkc9d"?>
<x:xmpmeta xmlns:x="adobe:ns:meta/" x:xmptk="Adobe XMP Core 5.6-c067 79.157747, 2015/03/30-23:40:42        ">
   <rdf:RDF xmlns:rdf="http://www.w3.org/1999/02/22-rdf-syntax-ns#">
      <rdf:Description rdf:about=""/>
   </rdf:RDF>
</x:xmpmeta>





















<?xpacket end="w"?></metadata>
<style type="text/css">
	.st0{fill:#221F26;}
	.st1{fill:#FFFFFF;}
</style>
<g>
	<path class="st0" d="M192.5,152.5c0,22.1-17.9,40-40,40h-110c-22.1,0-40-17.9-40-40v-110c0-22.1,17.9-40,40-40h110
		c22.1,0,40,17.9,40,40V152.5z"/>
</g>
<g>
	<path class="st1" d="M63.5,43.9v88.3v6.2v18c0,0.2,0.1,0.2,0.2,0.1l4.5-4.5c0.1-0.1,0.4-0.2,0.6-0.2h30.4c0,0,0.1,0,0.1,0
		c22.8-0.1,33.3-11.5,33.3-31.1v-18.9c0-21.2-11.1-32.6-32.6-32.6c-5.3,0-9.9,0.5-13.8,0.9V43.9c0-4.2-1.4-5.6-5.6-5.6H69.1
		C64.9,38.3,63.5,39.7,63.5,43.9z M97.3,131.5c-4.1,0-7.7-0.3-10.7-1.1c-0.5-0.2-0.5-0.5-0.5-0.8V90.3c2.9-0.5,6.3-0.9,10.1-0.9
		c9.3,0,13.7,3.9,13.7,12.3v18.8C109.9,127.6,105.3,131.5,97.3,131.5z"/>
</g>
</svg>
