<?xml version="1.0" encoding="utf-8"?>
<!-- Generator: Adobe Illustrator 19.1.0, SVG Export Plug-In . SVG Version: 6.00 Build 0)  -->
<svg version="1.1" id="Layer_1" xmlns="http://www.w3.org/2000/svg" xmlns:xlink="http://www.w3.org/1999/xlink" x="0px" y="0px"
	 viewBox="0 0 304.3 144.4" style="enable-background:new 0 0 304.3 144.4;" xml:space="preserve">
<metadata><?xpacket begin="﻿" id="W5M0MpCehiHzreSzNTczkc9d"?>
<x:xmpmeta xmlns:x="adobe:ns:meta/" x:xmptk="Adobe XMP Core 5.6-c067 79.157747, 2015/03/30-23:40:42        ">
   <rdf:RDF xmlns:rdf="http://www.w3.org/1999/02/22-rdf-syntax-ns#">
      <rdf:Description rdf:about=""/>
   </rdf:RDF>
</x:xmpmeta>
                                                                                                    
                                                                                                    
                                                                                                    
                                                                                                    
                                                                                                    
                                                                                                    
                                                                                                    
                                                                                                    
                                                                                                    
                                                                                                    
                                                                                                    
                                                                                                    
                                                                                                    
                                                                                                    
                                                                                                    
                                                                                                    
                                                                                                    
                                                                                                    
                                                                                                    
                                                                                                    
                           
<?xpacket end="w"?></metadata>
<style type="text/css">
	.st0{fill:#221F26;}
</style>
<g>
	<path class="st0" d="M130,54.9c-0.4-5.3,2.1-8.4,7-10.3c16-6,32.4-8.1,49.2-4.9c13.3,2.5,22.2,12,24.3,25.4
		c0.6,3.6,0.8,7.2,0.8,10.8c0.1,16.5,0,33,0,49.5c0,6.6-1.2,7.7-7.7,7.7c-4.2,0-8.5,0-12.7,0c-4.6-0.1-6.2-1.6-6.2-6.3
		c0-16.6,0-33.2-0.1-49.8c0-2.5-0.3-5.2-1.2-7.6c-1.9-4.9-6.3-6.5-11-6.6c-4.6-0.1-9.2,0.6-13.7,1c-1.6,0.1-2.1,0.9-2.1,2.6
		c0.1,19.6,0,39.1,0,58.7c0,6.9-1.1,8.1-8,8.1c-4.2,0-8.5,0-12.7,0c-4.3-0.1-5.9-1.5-5.9-5.8L130,54.9z"/>
	<path class="st0" d="M119.4,87.1c0,12.7,0,25.3,0,38c0,6.8-1.2,7.9-7.9,7.9c-4.2,0-8.4,0-12.5,0c-4.6-0.1-6.2-1.7-6.2-6.3
		c0-26.5,0-53,0-79.5c0-4.5,1.4-6.1,5.8-6.2c5.4-0.2,10.8-0.1,16.2,0.1c3.1,0.1,4.3,1.6,4.6,4.7c0.1,1.1,0.1,2.2,0.1,3.3
		C119.4,61.8,119.4,74.4,119.4,87.1z"/>
	<path class="st0" d="M43.3,135.6c5.3-0.1,10.6-0.7,15.9-2.3c7-2.1,12.9-5.7,17.2-11.6c4.5-6.3,6.4-13.5,6.6-21.1
		c0.2-8.5,0.2-17,0.1-25.5c0-3.4-0.3-6.8-0.8-10.1c-1.2-7.1-4.1-13.4-9.6-18.2c-6.1-5.4-13.7-7.5-21.6-8.3c-7.6-0.8-15-0.1-23,1.5
		l0.2-31.7c0-4.7-1.5-6.2-6.1-6.3c-4.4-0.1-8.8,0-13.2,0C2.9,2,1.6,3.3,1.6,9.2L1.1,141.7c0,0.2,0.6,0.3,0.8,0.1l5.7-5.9
		c0.2-0.2,0.7-0.4,1-0.4L43.3,135.6z M56.2,98.9c-0.6,7.7-4.4,11.6-12.1,12.5c-4.8,0.6-9.6,0.4-14.3-0.9c-1-0.3-1.4-0.7-1.4-1.8
		c0-14.7,0-29.5,0-44.2c0-0.1,0-0.2,0-0.4c0-0.1,0.1-0.2,0.1-0.2c6.1-1.5,12.2-2.7,18.4-1.2c5.4,1.3,8.7,4.8,9.2,10.3
		c0.4,4.3,0.2,8.6,0.3,12.9C56.4,90.3,56.5,94.7,56.2,98.9z"/>
	<path class="st0" d="M295.6,135.5c0.2,0,0.8,0.2,1,0.4l5.7,5.9c0.2,0.2,0.8,0.1,0.8-0.1L302.4,9.2c0-6-1.3-7.3-7.2-7.3
		c-4.4,0-8.8,0-13.2,0c-4.6,0.1-6.1,1.6-6.1,6.3l0.2,31.7c-8-1.6-15.4-2.2-23-1.5c-7.9,0.8-15.5,2.9-21.6,8.3
		c-5.5,4.9-8.4,11.1-9.6,18.2c-0.6,3.3-0.8,6.7-0.8,10.1c-0.1,8.5-0.2,17,0.1,25.5c0.2,7.6,2.1,14.8,6.6,21.1
		c4.3,6,10.2,9.6,17.2,11.6c5.2,1.6,10.6,2.2,15.9,2.3L295.6,135.5z M247.7,86c0-4.3-0.1-8.6,0.3-12.9c0.5-5.6,3.8-9,9.2-10.3
		c6.2-1.5,12.3-0.3,18.4,1.2c0.1,0,0.1,0.1,0.1,0.2c0,0.1,0,0.3,0,0.4c0,14.7,0,29.5,0,44.2c0,1.1-0.4,1.5-1.4,1.8
		c-4.7,1.3-9.5,1.5-14.3,0.9c-7.8-0.9-11.5-4.8-12.1-12.5C247.5,94.7,247.7,90.3,247.7,86z"/>
</g>
</svg>
