<?xml version="1.0" encoding="utf-8"?>
<!-- Generator: Adobe Illustrator 19.1.0, SVG Export Plug-In . SVG Version: 6.00 Build 0)  -->
<svg version="1.1" id="Layer_1" xmlns="http://www.w3.org/2000/svg" xmlns:xlink="http://www.w3.org/1999/xlink" x="0px" y="0px"
	 viewBox="0 0 312 290" style="enable-background:new 0 0 312 290;" xml:space="preserve">
<metadata><?xpacket begin="﻿" id="W5M0MpCehiHzreSzNTczkc9d"?>
<x:xmpmeta xmlns:x="adobe:ns:meta/" x:xmptk="Adobe XMP Core 5.6-c067 79.157747, 2015/03/30-23:40:42        ">
   <rdf:RDF xmlns:rdf="http://www.w3.org/1999/02/22-rdf-syntax-ns#">
      <rdf:Description rdf:about=""/>
   </rdf:RDF>
</x:xmpmeta>
                                                                                                    
                                                                                                    
                                                                                                    
                                                                                                    
                                                                                                    
                                                                                                    
                                                                                                    
                                                                                                    
                                                                                                    
                                                                                                    
                                                                                                    
                                                                                                    
                                                                                                    
                                                                                                    
                                                                                                    
                                                                                                    
                                                                                                    
                                                                                                    
                                                                                                    
                                                                                                    
                           
<?xpacket end="w"?></metadata>
<style type="text/css">
	.st0{fill:#221F26;}
	.st1{fill:#FFFFFF;}
</style>
<g>
	<g>
		<circle class="st0" cx="171.1" cy="61.4" r="1.6"/>
	</g>
	<g>
		<path class="st0" d="M171.1,234.3c-3.2,0-5.8-2.6-5.8-5.8s2.6-5.8,5.8-5.8s5.8,2.6,5.8,5.8S174.3,234.3,171.1,234.3z M171.1,223.3
			c-2.8,0-5.1,2.3-5.1,5.1s2.3,5.1,5.1,5.1s5.1-2.3,5.1-5.1S173.9,223.3,171.1,223.3z"/>
	</g>
	<g>
		<path class="st0" d="M229.5,220.7H112.7V69.1h116.7V220.7z M114.1,219.4h114.1V70.5H114.1V219.4z"/>
	</g>
	<g>
		<path class="st0" d="M236.7,237.5H105.6c-3.6,0-6.5-2.9-6.5-6.5V58.8c0-3.6,2.9-6.5,6.5-6.5h131.1c3.6,0,6.5,2.9,6.5,6.5V231
			C243.2,234.6,240.3,237.5,236.7,237.5z M105.6,53.6c-2.9,0-5.2,2.3-5.2,5.2V231c0,2.9,2.3,5.2,5.2,5.2h131.1
			c2.9,0,5.2-2.3,5.2-5.2V58.8c0-2.9-2.3-5.2-5.2-5.2H105.6z"/>
	</g>
	<g>
		<g>
			<path class="st1" d="M129.2,90.5H80.8c-5.9,0-10.8,4.6-10.8,10.5v125.4c0,5.9,4.9,11,10.8,11h48.4c5.9,0,10.7-5.1,10.7-11V101.1
				C139.9,95.1,135.1,90.5,129.2,90.5z M133.3,214.5H76.5V113.2h56.8V214.5z M133.3,214.5H76.5V113.2h56.8V214.5z"/>
			<path class="st0" d="M129.2,237.9H80.8c-6.1,0-11.3-5.3-11.3-11.5V101.1c0-6.1,5.1-11,11.3-11h48.4c6.3,0,11.2,4.8,11.2,11v125.4
				C140.4,232.7,135.4,237.9,129.2,237.9z M80.8,91c-5.7,0-10.3,4.5-10.3,10v125.4c0,5.7,4.7,10.5,10.3,10.5h48.4
				c5.5,0,10.2-4.8,10.2-10.5V101.1c0-5.6-4.5-10-10.2-10H80.8z M133.8,215H76V112.7h57.8V215z M77,214h55.8V113.7H77V214z"/>
		</g>
		<g>
			<path class="st0" d="M104.9,232.9c-3.8,0-6.9-3.1-6.9-6.9c0-3.8,3.1-6.9,6.9-6.9s6.9,3.1,6.9,6.9
				C111.8,229.8,108.7,232.9,104.9,232.9z M104.9,219.9c-3.3,0-6,2.7-6,6s2.7,6,6,6s6-2.7,6-6S108.2,219.9,104.9,219.9z"/>
		</g>
		<g>
			<path class="st0" d="M99.2,100.9h11.2c0.7,0,1.2,0.4,1.2,1c0,0.7-0.5,1-1.2,1H99.2c-0.6,0-1.2-0.4-1.2-1
				C98.1,101.3,98.6,100.9,99.2,100.9z"/>
		</g>
	</g>
</g>
</svg>
