<?xml version="1.0" encoding="utf-8"?>
<!-- Generator: Adobe Illustrator 15.0.0, SVG Export Plug-In . SVG Version: 6.00 Build 0)  -->
<!DOCTYPE svg PUBLIC "-//W3C//DTD SVG 1.1//EN" "http://www.w3.org/Graphics/SVG/1.1/DTD/svg11.dtd">
<svg version="1.1" id="Layer_1" xmlns="http://www.w3.org/2000/svg" xmlns:xlink="http://www.w3.org/1999/xlink" x="0px" y="0px"
	 width="84.931px" height="86.986px" viewBox="0 0 84.931 86.986" enable-background="new 0 0 84.931 86.986" xml:space="preserve">
<circle fill="none" stroke="#FFFFFF" stroke-miterlimit="10" cx="42.281" cy="42.938" r="39.318"/>
<path fill="#FFFFFF" d="M60.018,44.248c0-1.589-1.077-2.977-2.616-3.369l-15.955-4.08c-0.518-0.069-0.905-0.511-0.905-1.034v-12.65
	c0-1.345-1.09-2.435-2.435-2.435c-1.344,0-2.434,1.09-2.434,2.435v23.997c0,1.262-1.683,1.896-2.783,0.99l-3.598-2.957
	c-1.086-1.086-2.848-1.086-3.935,0c-1.086,1.087-1.086,2.849,0,3.936L39.846,62.2v-0.006c2.139,1.868,4.936,3.002,7.999,3.002
	c6.723,0,12.173-5.448,12.173-12.172V44.248z"/>
</svg>
