<?xml version="1.0" encoding="utf-8"?>
<!-- Generator: Adobe Illustrator 19.1.0, SVG Export Plug-In . SVG Version: 6.00 Build 0)  -->
<svg version="1.1" id="Layer_1" xmlns="http://www.w3.org/2000/svg" xmlns:xlink="http://www.w3.org/1999/xlink" x="0px" y="0px"
	 viewBox="0 0 312 290" style="enable-background:new 0 0 312 290;" xml:space="preserve">
<metadata><?xpacket begin="﻿" id="W5M0MpCehiHzreSzNTczkc9d"?>
<x:xmpmeta xmlns:x="adobe:ns:meta/" x:xmptk="Adobe XMP Core 5.6-c067 79.157747, 2015/03/30-23:40:42        ">
   <rdf:RDF xmlns:rdf="http://www.w3.org/1999/02/22-rdf-syntax-ns#">
      <rdf:Description rdf:about=""/>
   </rdf:RDF>
</x:xmpmeta>
                                                                                                    
                                                                                                    
                                                                                                    
                                                                                                    
                                                                                                    
                                                                                                    
                                                                                                    
                                                                                                    
                                                                                                    
                                                                                                    
                                                                                                    
                                                                                                    
                                                                                                    
                                                                                                    
                                                                                                    
                                                                                                    
                                                                                                    
                                                                                                    
                                                                                                    
                                                                                                    
                           
<?xpacket end="w"?></metadata>
<style type="text/css">
	.st0{fill:#221F26;}
</style>
<g>
	<g>
		<path class="st0" d="M286.8,237.1H27.4c-1.5,0-2.8-1.3-2.8-2.8V54.3c0-1.5,1.3-2.8,2.8-2.8h259.3c1.5,0,2.8,1.3,2.8,2.8v180.1
			C289.6,235.9,288.3,237.1,286.8,237.1z M27.4,52.8c-0.8,0-1.4,0.6-1.4,1.4v180.1c0,0.8,0.6,1.4,1.4,1.4h259.3
			c0.8,0,1.4-0.6,1.4-1.4V54.3c0-0.8-0.6-1.4-1.4-1.4H27.4z"/>
	</g>
	<g>
		<path class="st0" d="M30.3,59.3c-1.1,0-2.1-0.9-2.1-2.1c0-1.1,0.9-2.1,2.1-2.1c1.1,0,2.1,0.9,2.1,2.1
			C32.4,58.4,31.4,59.3,30.3,59.3z M30.3,56.2c-0.6,0-1.1,0.5-1.1,1.1s0.5,1.1,1.1,1.1s1.1-0.5,1.1-1.1S30.9,56.2,30.3,56.2z"/>
	</g>
	<g>
		<path class="st0" d="M35.6,59.3c-1.1,0-2.1-0.9-2.1-2.1c0-1.1,0.9-2.1,2.1-2.1s2.1,0.9,2.1,2.1C37.6,58.4,36.7,59.3,35.6,59.3z
			 M35.6,56.2c-0.6,0-1.1,0.5-1.1,1.1s0.5,1.1,1.1,1.1s1.1-0.5,1.1-1.1S36.1,56.2,35.6,56.2z"/>
	</g>
	<g>
		<path class="st0" d="M40.8,59.3c-1.1,0-2.1-0.9-2.1-2.1c0-1.1,0.9-2.1,2.1-2.1c1.1,0,2.1,0.9,2.1,2.1C42.9,58.4,42,59.3,40.8,59.3
			z M40.8,56.2c-0.6,0-1.1,0.5-1.1,1.1s0.5,1.1,1.1,1.1s1.1-0.5,1.1-1.1S41.4,56.2,40.8,56.2z"/>
	</g>
	<g>
		<path class="st0" d="M44.5,63L44.5,63L25,63v-1h19.6c0.1-0.2,0.3-0.6,0.6-1.4l1.7-4.8c0-0.3,0-0.8,0.3-1.2
			c0.3-0.4,0.8-0.6,1.5-0.6h46.9c0.2,0,0.9,0,1.6,1.9l1.8,4.5c0,0,0,0,0,0s0.5,0.4,1.4,0.4l187.8,0.8l0,1l-187.7-0.8
			c-1.3,0-1.9-0.6-2.1-1l-2-4.5C96,55.1,95.6,55,95.6,55l-46.8,0c-0.3,0-0.6,0-0.7,0.2c-0.1,0.2-0.1,0.5-0.1,0.5l0,0.1l0,0.1
			l-1.7,4.9c-0.7,1.9-1,2.1-1.3,2.1L44.5,63z"/>
	</g>
	<g>
		<path class="st0" d="M278.4,71.4h-229v-7.9h229V71.4z M50.2,70.6h227.4v-6.3H50.2V70.6z"/>
	</g>
	<g>
		<polygon class="st0" points="288,74 25,73 25,72 288,73 		"/>
	</g>
</g>
</svg>
